<svg width="33" height="24" viewBox="0 0 33 24" fill="none" xmlns="http://www.w3.org/2000/svg">
<path d="M30 0.75H3C2.40326 0.75 1.83097 0.987053 1.40901 1.40901C0.987053 1.83097 0.75 2.40326 0.75 3V21C0.75 21.5967 0.987053 22.169 1.40901 22.591C1.83097 23.0129 2.40326 23.25 3 23.25H30C30.5967 23.25 31.169 23.0129 31.591 22.591C32.0129 22.169 32.25 21.5967 32.25 21V3C32.25 2.40326 32.0129 1.83097 31.591 1.40901C31.169 0.987053 30.5967 0.75 30 0.75ZM27.525 3L16.5 10.6275L5.475 3H27.525ZM3 21V4.02375L15.8588 12.9225C16.0471 13.0531 16.2708 13.1232 16.5 13.1231C16.7292 13.1232 16.9529 13.0531 17.1413 12.9225L30 4.02375V21H3Z" fill="#F7FCFF"/>
</svg>
