<svg width="21" height="22" viewBox="0 0 21 22" fill="none" xmlns="http://www.w3.org/2000/svg">
<path fill-rule="evenodd" clip-rule="evenodd" d="M5.93782 0.210332C7.00418 0.157044 7.34418 0.145203 10.0605 0.145203C12.7769 0.145203 13.1169 0.158031 14.1824 0.210332C15.2478 0.262632 15.9751 0.447164 16.6115 0.714588C17.2778 0.987932 17.8824 1.41522 18.3824 1.96783C18.8915 2.50958 19.2842 3.16482 19.5351 3.88913C19.7824 4.57989 19.9515 5.36933 20.0005 6.52389C20.0496 7.68338 20.0605 8.05245 20.0605 11C20.0605 13.9486 20.0487 14.3177 20.0005 15.4752C19.9524 16.6297 19.7824 17.4192 19.5351 18.1099C19.2842 18.8343 18.8908 19.4907 18.3824 20.0332C17.8824 20.5858 17.2778 21.0121 16.6115 21.2845C15.9751 21.5529 15.2478 21.7364 14.1842 21.7897C13.1169 21.843 12.7769 21.8549 10.0605 21.8549C7.34418 21.8549 7.00418 21.842 5.93782 21.7897C4.87418 21.7374 4.14691 21.5529 3.51055 21.2845C2.8432 21.0121 2.23857 20.5851 1.73873 20.0332C1.22998 19.4911 0.836288 18.8351 0.585092 18.1109C0.338729 17.4202 0.169638 16.6307 0.120547 15.4762C0.071456 14.3167 0.0605469 13.9476 0.0605469 11C0.0605469 8.05146 0.072365 7.6824 0.120547 6.52587C0.168729 5.36933 0.338729 4.57989 0.585092 3.88913C0.836659 3.1649 1.23065 2.5089 1.73964 1.96684C2.23877 1.41472 2.84279 0.987382 3.50964 0.714588C4.146 0.447164 4.87327 0.263619 5.93691 0.210332H5.93782ZM14.1015 2.1642C13.0469 2.1119 12.7305 2.10104 10.0605 2.10104C7.39055 2.10104 7.07418 2.1119 6.01964 2.1642C5.04418 2.21255 4.51509 2.38919 4.16237 2.5382C3.696 2.73556 3.36237 2.96943 3.01237 3.34935C2.68059 3.69972 2.42526 4.12624 2.26509 4.59765C2.12782 4.98053 1.96509 5.55485 1.92055 6.61369C1.87237 7.75838 1.86237 8.10179 1.86237 11C1.86237 13.8983 1.87237 14.2417 1.92055 15.3864C1.96509 16.4452 2.12782 17.0195 2.26509 17.4024C2.42509 17.8731 2.68055 18.3004 3.01237 18.6507C3.33509 19.0109 3.72873 19.2882 4.16237 19.4619C4.51509 19.6109 5.04418 19.7875 6.01964 19.8359C7.07418 19.8882 7.38964 19.899 10.0605 19.899C12.7315 19.899 13.0469 19.8882 14.1015 19.8359C15.0769 19.7875 15.606 19.6109 15.9587 19.4619C16.4251 19.2645 16.7587 19.0306 17.1087 18.6507C17.4405 18.3004 17.696 17.8731 17.856 17.4024C17.9933 17.0195 18.156 16.4452 18.2005 15.3864C18.2487 14.2417 18.2587 13.8983 18.2587 11C18.2587 8.10179 18.2487 7.75838 18.2005 6.61369C18.156 5.55485 17.9933 4.98053 17.856 4.59765C17.6742 4.09142 17.4587 3.72927 17.1087 3.34935C16.7859 2.98924 16.393 2.71208 15.9587 2.5382C15.606 2.38919 15.0769 2.21255 14.1015 2.1642ZM8.78327 14.3463C9.4966 14.6686 10.2909 14.7121 11.0305 14.4693C11.7701 14.2266 12.4091 13.7127 12.8384 13.0153C13.2677 12.318 13.4606 11.4805 13.3842 10.6459C13.3079 9.81126 12.9669 9.03133 12.4196 8.43927C12.0708 8.06081 11.6489 7.77102 11.1845 7.59077C10.7201 7.41052 10.2246 7.34428 9.73372 7.39683C9.24288 7.44938 8.76887 7.61942 8.34582 7.89469C7.92278 8.16996 7.56122 8.54362 7.28719 8.98878C7.01315 9.43393 6.83345 9.9395 6.76102 10.4691C6.68859 10.9987 6.72523 11.5391 6.86831 12.0515C7.01139 12.5639 7.25735 13.0354 7.58848 13.4322C7.9196 13.829 8.32766 14.1412 8.78327 14.3463ZM6.426 7.05479C6.9033 6.5367 7.46993 6.12572 8.09354 5.84533C8.71716 5.56494 9.38555 5.42062 10.0605 5.42062C10.7355 5.42062 11.4039 5.56494 12.0275 5.84533C12.6512 6.12572 13.2178 6.5367 13.6951 7.05479C14.1724 7.57289 14.551 8.18796 14.8093 8.86488C15.0676 9.54181 15.2006 10.2673 15.2006 11C15.2006 11.7327 15.0676 12.4582 14.8093 13.1352C14.551 13.8121 14.1724 14.4272 13.6951 14.9453C12.7312 15.9916 11.4238 16.5794 10.0605 16.5794C8.69733 16.5794 7.38994 15.9916 6.426 14.9453C5.46206 13.8989 4.92052 12.4798 4.92052 11C4.92052 9.52028 5.46206 8.10113 6.426 7.05479ZM16.3405 6.25153C16.4588 6.13042 16.5535 5.98478 16.619 5.82324C16.6845 5.66169 16.7195 5.48752 16.7218 5.31104C16.7242 5.13456 16.6939 4.95936 16.6328 4.79581C16.5717 4.63226 16.4809 4.48369 16.366 4.35889C16.251 4.23408 16.1141 4.13559 15.9634 4.06924C15.8128 4.00289 15.6514 3.97002 15.4888 3.9726C15.3262 3.97517 15.1658 4.01313 15.0169 4.08422C14.8681 4.15531 14.7339 4.25809 14.6224 4.38648C14.4054 4.63617 14.2866 4.96782 14.2912 5.31104C14.2958 5.65426 14.4234 5.98202 14.6471 6.22474C14.8707 6.46745 15.1726 6.60602 15.4888 6.61103C15.805 6.61603 16.1105 6.48707 16.3405 6.25153Z" fill="#F7FCFF"/>
</svg>
