<svg width="37" height="36" viewBox="0 0 37 36" fill="none" xmlns="http://www.w3.org/2000/svg">
<path d="M18.5 6.71997C17.3667 6.71997 16.2589 7.05603 15.3166 7.68565C14.3743 8.31527 13.6399 9.21017 13.2062 10.2572C12.7725 11.3042 12.659 12.4563 12.8801 13.5678C13.1012 14.6793 13.6469 15.7003 14.4483 16.5017C15.2497 17.303 16.2706 17.8488 17.3822 18.0699C18.4937 18.291 19.6458 18.1775 20.6928 17.7438C21.7398 17.3101 22.6347 16.5757 23.2643 15.6334C23.894 14.6911 24.23 13.5833 24.23 12.45C24.23 10.9303 23.6263 9.47283 22.5517 8.39825C21.4772 7.32367 20.0197 6.71997 18.5 6.71997ZM18.5 16.18C17.7623 16.18 17.0411 15.9612 16.4277 15.5514C15.8143 15.1415 15.3363 14.5589 15.054 13.8774C14.7716 13.1958 14.6978 12.4458 14.8417 11.7223C14.9856 10.9987 15.3409 10.3341 15.8625 9.81246C16.3842 9.29081 17.0488 8.93556 17.7723 8.79164C18.4959 8.64772 19.2459 8.72159 19.9274 9.0039C20.609 9.28621 21.1915 9.7643 21.6014 10.3777C22.0113 10.9911 22.23 11.7122 22.23 12.45C22.2274 13.4375 21.8332 14.3837 21.134 15.081C20.4348 15.7784 19.4875 16.17 18.5 16.17V16.18Z" fill="#F7FCFF"/>
<path d="M18.5 2C15.3852 2.0026 12.398 3.23769 10.1908 5.4355C7.9836 7.6333 6.73582 10.6152 6.71997 13.73C6.71997 18.4 9.33997 22.31 11.26 25.16L11.61 25.68C13.5202 28.4486 15.5695 31.1187 17.75 33.68L18.51 34.57L19.27 33.68C21.4501 31.1185 23.4994 28.4484 25.41 25.68L25.76 25.15C27.67 22.3 30.29 18.4 30.29 13.73C30.2741 10.6135 29.025 7.63006 26.8156 5.43197C24.6063 3.23388 21.6165 1.99996 18.5 2ZM24.09 24L23.73 24.53C22.01 27.11 19.73 30 18.5 31.43C17.32 30 14.99 27.11 13.27 24.53L12.92 24C11.15 21.36 8.71997 17.75 8.71997 13.69C8.71997 12.4057 8.97294 11.1339 9.46443 9.94736C9.95592 8.76079 10.6763 7.68265 11.5845 6.7745C12.4926 5.86634 13.5708 5.14595 14.7573 4.65446C15.9439 4.16297 17.2156 3.91 18.5 3.91C19.7843 3.91 21.0561 4.16297 22.2426 4.65446C23.4292 5.14595 24.5073 5.86634 25.4155 6.7745C26.3236 7.68265 27.044 8.76079 27.5355 9.94736C28.027 11.1339 28.28 12.4057 28.28 13.69C28.28 17.79 25.86 21.4 24.09 24Z" fill="#F7FCFF"/>
</svg>
