<svg width="37" height="36" viewBox="0 0 37 36" fill="none" xmlns="http://www.w3.org/2000/svg">
<path d="M18.5 33.75C15.385 33.75 12.3398 32.8263 9.74978 31.0957C7.1597 29.365 5.14098 26.9052 3.9489 24.0273C2.75682 21.1493 2.44492 17.9825 3.05264 14.9273C3.66036 11.8721 5.1604 9.06575 7.36307 6.86307C9.56575 4.6604 12.3721 3.16036 15.4273 2.55264C18.4825 1.94492 21.6493 2.25682 24.5273 3.4489C27.4052 4.64098 29.865 6.6597 31.5957 9.24978C33.3263 11.8398 34.25 14.885 34.25 18C34.25 22.1772 32.5906 26.1832 29.6369 29.1369C26.6832 32.0906 22.6772 33.75 18.5 33.75ZM18.5 4.50001C15.83 4.50001 13.2199 5.29177 10.9998 6.77517C8.77975 8.25857 7.04942 10.367 6.02763 12.8338C5.00585 15.3006 4.73851 18.015 5.25941 20.6337C5.78031 23.2525 7.06606 25.6579 8.95407 27.5459C10.8421 29.434 13.2475 30.7197 15.8663 31.2406C18.485 31.7615 21.1994 31.4942 23.6662 30.4724C26.133 29.4506 28.2414 27.7203 29.7248 25.5002C31.2082 23.2801 32 20.6701 32 18C32 14.4196 30.5777 10.9858 28.0459 8.45407C25.5142 5.92232 22.0804 4.50001 18.5 4.50001Z" fill="#F7FCFF"/>
<path d="M23.6638 24.75L17.375 18.4613V7.875H19.625V17.5275L25.25 23.1637L23.6638 24.75Z" fill="#F7FCFF"/>
</svg>
