<svg width="53" height="50" viewBox="0 0 53 50" fill="none" xmlns="http://www.w3.org/2000/svg">
<path d="M26.5395 33.5435C24.9823 33.5494 23.4456 33.227 22.0556 32.6029C20.6657 31.9787 19.4619 31.0706 18.5431 29.9529L12.1395 33.2224C12.3831 33.4721 12.6716 33.6842 12.9933 33.85L24.3885 39.6884C25.0545 39.9908 25.7916 40.1484 26.5395 40.1484C27.2873 40.1484 28.0244 39.9908 28.6904 39.6884L40.0856 33.85C40.4073 33.6842 40.6958 33.4721 40.9395 33.2224L34.5523 29.8945C33.6389 31.025 32.4357 31.9457 31.0422 32.5802C29.6487 33.2148 28.1051 33.5451 26.5395 33.5435Z" fill="#F2F2F2"/>
<path d="M16.5133 24.7327C16.5191 22.657 17.4633 20.6558 19.1653 19.1116C20.8673 17.5674 23.2078 16.5886 25.7394 16.3622V10.0703C25.3553 10.1354 24.9858 10.2483 24.6439 10.4051L12.7646 15.9855C12.119 16.3376 11.5821 16.8067 11.1961 17.3561C10.81 17.9055 10.5853 18.5203 10.5394 19.1523V30.313C10.5447 30.6351 10.6081 30.9548 10.7277 31.2617L17.4034 28.1228C16.8197 27.0558 16.5165 25.901 16.5133 24.7327Z" fill="#F2F2F2"/>
<path d="M40.4314 15.9816L29.1773 10.4049C28.8535 10.2482 28.5034 10.1353 28.1395 10.0703V16.3441C29.6683 16.493 31.1352 16.9484 32.4219 17.6739C33.7087 18.3992 34.7793 19.3742 35.5476 20.5203C36.3159 21.6665 36.7604 22.9517 36.8454 24.2725C36.9303 25.5934 36.6534 26.9128 36.0367 28.1248L42.3612 31.2617C42.4744 30.9549 42.5345 30.6355 42.5395 30.3137V19.1603C42.4985 18.5263 42.2867 17.9091 41.9209 17.3575C41.555 16.8058 41.0451 16.3348 40.4314 15.9816Z" fill="#F2F2F2"/>
<path d="M48.6287 10.3924L30.0502 1.21114C28.9607 0.743495 27.7585 0.5 26.5395 0.5C25.3204 0.5 24.1183 0.743495 23.0287 1.21114L4.45017 10.3924C3.43041 10.9608 2.58137 11.7265 1.97145 12.6276C1.36161 13.5286 1.00809 14.5397 0.939453 15.5792V33.9415C1.00681 34.9833 1.35969 35.9968 1.96953 36.9003C2.57937 37.8039 3.42913 38.5721 4.45017 39.1428L23.0287 48.3242C24.1183 48.7918 25.3204 49.0352 26.5395 49.0352C27.7585 49.0352 28.9607 48.7918 30.0502 48.3242L48.6287 39.1428C49.6498 38.5721 50.4995 37.8039 51.1094 36.9003C51.7192 35.9968 52.0721 34.9833 52.1395 33.9415V15.5792C52.0708 14.5397 51.7173 13.5286 51.1074 12.6276C50.4975 11.7265 49.6485 10.9608 48.6287 10.3924ZM46.2434 31.8294C46.1888 32.6297 45.9158 33.4079 45.4461 34.1015C44.9765 34.7952 44.3233 35.385 43.5389 35.8238L29.227 42.8929C28.391 43.254 27.4676 43.4422 26.531 43.4422C25.5945 43.4422 24.671 43.254 23.8351 42.8929L9.54001 35.8238C8.75561 35.385 8.10241 34.7952 7.63281 34.1015C7.16313 33.4079 6.89009 32.6297 6.83553 31.8294V17.7057C6.89009 16.9054 7.16313 16.1273 7.63281 15.4337C8.10241 14.7399 8.75561 14.1501 9.54001 13.7113L23.8182 6.64229C24.6542 6.28115 25.5776 6.09296 26.5142 6.09296C27.4508 6.09296 28.3743 6.28115 29.2103 6.64229L43.5221 13.7113C44.3095 14.1485 44.9661 14.7377 45.4387 15.4315C45.9114 16.1252 46.187 16.9042 46.2434 17.7057V31.8294Z" fill="#F2F2F2"/>
<path d="M19.3395 24.7676C19.3395 25.9168 19.7617 27.0402 20.5528 27.9957C21.344 28.9513 22.4685 29.696 23.7842 30.1358C25.0998 30.5756 26.5475 30.6906 27.9442 30.4665C29.3408 30.2423 30.6237 29.6889 31.6306 28.8762C32.6376 28.0637 33.3233 27.0283 33.6012 25.9012C33.8789 24.774 33.7364 23.6057 33.1914 22.544C32.6464 21.4822 31.7237 20.5748 30.5396 19.9363C29.3556 19.2978 27.9635 18.957 26.5395 18.957C24.63 18.957 22.7986 19.5692 21.4484 20.6589C20.098 21.7486 19.3395 23.2266 19.3395 24.7676Z" fill="#F2F2F2"/>
</svg>
