<svg width="24" height="32" viewBox="0 0 24 32" fill="none" xmlns="http://www.w3.org/2000/svg">
<path d="M5.08401 1.62708L6.83451 1.10058C7.79345 0.811417 8.82484 0.881027 9.73622 1.29642C10.6476 1.71182 11.3767 2.44462 11.7875 3.35808L13.1405 6.36708C13.4937 7.15278 13.5921 8.02935 13.4218 8.87379C13.2515 9.71823 12.8211 10.4882 12.191 11.0756L9.95001 13.1651C9.88451 13.2261 9.843 13.3086 9.83301 13.3976C9.76701 13.9931 10.1705 15.1526 11.1005 16.7651C11.777 17.9366 12.3905 18.7601 12.911 19.2206C13.274 19.5431 13.4735 19.6121 13.559 19.5881L16.574 18.6656C17.3974 18.4137 18.2789 18.4258 19.0951 18.7002C19.9112 18.9746 20.621 19.4975 21.125 20.1956L23.0465 22.8596C23.6308 23.6697 23.9014 24.6644 23.8078 25.6588C23.7143 26.6533 23.2631 27.5801 22.538 28.2671L21.209 29.5271C20.5037 30.195 19.6373 30.6689 18.6944 30.9026C17.7515 31.1363 16.7642 31.1218 15.8285 30.8606C11.6975 29.7071 7.99401 26.2211 4.67601 20.4746C1.35351 14.7206 0.188012 9.76458 1.26201 5.60508C1.50378 4.66958 1.98244 3.81213 2.65187 3.11538C3.3213 2.41862 4.15893 1.90606 5.08401 1.62708ZM5.73351 3.78258C5.17862 3.94976 4.67613 4.25701 4.27443 4.67474C3.87274 5.09246 3.58537 5.60658 3.44001 6.16758C2.53701 9.66558 3.57051 14.0591 6.62451 19.3496C9.67401 24.6326 12.9575 27.7226 16.4345 28.6946C16.9957 28.8509 17.5878 28.8593 18.1532 28.7189C18.7186 28.5785 19.2381 28.2942 19.661 27.8936L20.9915 26.6336C21.3212 26.3213 21.5264 25.8999 21.5689 25.4477C21.6114 24.9956 21.4883 24.5434 21.2225 24.1751L19.3025 21.5126C19.0734 21.1949 18.7506 20.9569 18.3793 20.8321C18.008 20.7073 17.607 20.7019 17.2325 20.8166L14.21 21.7421C12.455 22.2641 10.862 20.8526 9.15201 17.8901C8.00001 15.8951 7.46301 14.3501 7.59651 13.1486C7.66701 12.5246 7.95651 11.9486 8.41551 11.5196L10.6565 9.43008C10.943 9.1631 11.1388 8.81311 11.2163 8.42921C11.2937 8.04531 11.2491 7.64679 11.0885 7.28958L9.73551 4.28058C9.54879 3.86569 9.21759 3.53285 8.80363 3.34408C8.38967 3.15532 7.92119 3.12351 7.48551 3.25458L5.73351 3.78258Z" fill="#F7FCFF"/>
</svg>
