<svg width="25" height="24" viewBox="0 0 25 24" fill="none" xmlns="http://www.w3.org/2000/svg">
<path d="M18.5529 15.5144C20.0054 13.5325 20.6559 11.0752 20.3744 8.63419C20.0929 6.19319 18.9 3.94849 17.0346 2.34919C15.1691 0.749881 12.7686 -0.0860915 10.3132 0.00851783C7.85786 0.103127 5.52876 1.12134 3.7919 2.85945C2.05503 4.59756 1.03848 6.92739 0.945629 9.38281C0.852777 11.8382 1.69047 14.2382 3.29111 16.1025C4.89175 17.9668 7.1373 19.158 9.5785 19.4378C12.0197 19.7176 14.4765 19.0653 16.4574 17.6114H16.4559C16.5009 17.6714 16.5489 17.7284 16.6029 17.7839L22.3779 23.5589C22.6592 23.8404 23.0407 23.9986 23.4386 23.9987C23.8365 23.9988 24.2182 23.8409 24.4997 23.5597C24.7811 23.2784 24.9393 22.8968 24.9395 22.4989C24.9396 22.101 24.7817 21.7194 24.5004 21.4379L18.7254 15.6629C18.6718 15.6087 18.6141 15.5585 18.5529 15.5129V15.5144ZM18.9399 9.74846C18.9399 10.8319 18.7265 11.9047 18.3119 12.9056C17.8973 13.9065 17.2896 14.816 16.5236 15.5821C15.7575 16.3481 14.848 16.9558 13.8471 17.3704C12.8462 17.785 11.7734 17.9984 10.69 17.9984C9.60656 17.9984 8.53377 17.785 7.53284 17.3704C6.53191 16.9558 5.62244 16.3481 4.85636 15.5821C4.09028 14.816 3.48259 13.9065 3.06799 12.9056C2.65339 11.9047 2.44 10.8319 2.44 9.74846C2.44 7.56043 3.30919 5.46202 4.85636 3.91486C6.40353 2.36769 8.50194 1.4985 10.69 1.4985C12.878 1.4985 14.9764 2.36769 16.5236 3.91486C18.0707 5.46202 18.9399 7.56043 18.9399 9.74846Z" fill="#002C45"/>
</svg>
