<svg width="28" height="24" viewBox="0 0 28 24" fill="none" xmlns="http://www.w3.org/2000/svg">
<path d="M26.4606 1.15737C25.3932 1.97461 24.2114 2.59967 22.9607 3.00848C22.2895 2.17065 21.3973 1.57682 20.405 1.3073C19.4127 1.03778 18.368 1.10558 17.4124 1.50152C16.4567 1.89746 15.6361 2.60245 15.0616 3.52113C14.487 4.4398 14.1863 5.52785 14.2 6.63811V7.84799C12.2413 7.90312 10.3003 7.43156 8.55013 6.47532C6.79992 5.51907 5.29474 4.10782 4.16865 2.36725C4.16865 2.36725 -0.289739 13.2561 9.74163 18.0956C7.44615 19.787 4.71163 20.6351 1.93945 20.5154C11.9708 26.5648 24.2314 20.5154 24.2314 6.60182C24.2304 6.26481 24.2005 5.92863 24.1422 5.59762C25.2798 4.37987 26.0825 2.84238 26.4606 1.15737V1.15737Z" stroke="#F7FCFF" stroke-width="2" stroke-linecap="round" stroke-linejoin="round"/>
</svg>
