<svg width="29" height="22" viewBox="0 0 29 22" fill="none" xmlns="http://www.w3.org/2000/svg">
<path d="M28.9395 10.9065C28.9395 10.833 28.9395 10.7495 28.9363 10.6526C28.9332 10.3819 28.927 10.0779 28.9207 9.75384C28.8957 8.82171 28.852 7.89292 28.7832 7.01758C28.6895 5.81149 28.552 4.80586 28.3645 4.0508C28.1666 3.26283 27.7787 2.54418 27.2397 1.96669C26.7006 1.3892 26.0292 0.973083 25.2926 0.759942C24.4082 0.506028 22.677 0.349002 20.2395 0.252114C19.0801 0.20534 17.8395 0.175271 16.5988 0.158566C16.1645 0.151884 15.7613 0.148544 15.3988 0.145203H14.4801C14.1176 0.148544 13.7145 0.151884 13.2801 0.158566C12.0395 0.175271 10.7988 0.20534 9.63945 0.252114C7.20195 0.352343 5.46758 0.509369 4.58633 0.759942C3.84946 0.972559 3.17779 1.3885 2.63865 1.96607C2.09951 2.54365 1.71183 3.26257 1.51445 4.0508C1.32383 4.80586 1.18945 5.81149 1.0957 7.01758C1.02695 7.89292 0.983203 8.82171 0.958203 9.75384C0.948828 10.0779 0.945703 10.3819 0.942578 10.6526C0.942578 10.7495 0.939453 10.833 0.939453 10.9065V11.0936C0.939453 11.1671 0.939453 11.2506 0.942578 11.3475C0.945703 11.6181 0.951953 11.9221 0.958203 12.2462C0.983203 13.1783 1.02695 14.1071 1.0957 14.9825C1.18945 16.1886 1.32695 17.1942 1.51445 17.9493C1.91445 19.5496 3.08945 20.8125 4.58633 21.2401C5.46758 21.494 7.20195 21.651 9.63945 21.7479C10.7988 21.7947 12.0395 21.8248 13.2801 21.8415C13.7145 21.8482 14.1176 21.8515 14.4801 21.8549H15.3988C15.7613 21.8515 16.1645 21.8482 16.5988 21.8415C17.8395 21.8248 19.0801 21.7947 20.2395 21.7479C22.677 21.6477 24.4113 21.4907 25.2926 21.2401C26.7895 20.8125 27.9645 19.5529 28.3645 17.9493C28.5551 17.1942 28.6895 16.1886 28.7832 14.9825C28.852 14.1071 28.8957 13.1783 28.9207 12.2462C28.9301 11.9221 28.9332 11.6181 28.9363 11.3475C28.9363 11.2506 28.9395 11.1671 28.9395 11.0936V10.9065ZM26.6895 11.0802C26.6895 11.1504 26.6895 11.2272 26.6863 11.3174C26.6832 11.578 26.677 11.8653 26.6707 12.176C26.6488 13.0647 26.6051 13.9534 26.5395 14.7787C26.4551 15.8545 26.3363 16.7365 26.1895 17.3278C25.9957 18.0996 25.427 18.711 24.7082 18.9148C24.052 19.1019 22.3988 19.2522 20.152 19.3424C19.0145 19.3892 17.7895 19.4193 16.5676 19.436C16.1395 19.4427 15.7426 19.446 15.3863 19.446H14.4926L13.3113 19.436C12.0895 19.4193 10.8676 19.3892 9.72695 19.3424C7.48008 19.2489 5.82383 19.1019 5.1707 18.9148C4.45195 18.7077 3.8832 18.0996 3.68945 17.3278C3.54258 16.7365 3.42383 15.8545 3.33945 14.7787C3.27383 13.9534 3.2332 13.0647 3.2082 12.176C3.19883 11.8653 3.1957 11.5747 3.19258 11.3174C3.19258 11.2272 3.18945 11.147 3.18945 11.0802V10.9198C3.18945 10.8497 3.18945 10.7728 3.19258 10.6826C3.1957 10.422 3.20195 10.1347 3.2082 9.824C3.23008 8.9353 3.27383 8.04661 3.33945 7.22138C3.42383 6.14559 3.54258 5.26357 3.68945 4.67222C3.8832 3.90046 4.45195 3.28906 5.1707 3.08526C5.82695 2.89816 7.48008 2.74782 9.72695 2.65761C10.8645 2.61084 12.0895 2.58077 13.3113 2.56407C13.7395 2.55739 14.1363 2.55404 14.4926 2.55404H15.3863L16.5676 2.56407C17.7895 2.58077 19.0113 2.61084 20.152 2.65761C22.3988 2.75116 24.0551 2.89816 24.7082 3.08526C25.427 3.2924 25.9957 3.90046 26.1895 4.67222C26.3363 5.26357 26.4551 6.14559 26.5395 7.22138C26.6051 8.04661 26.6457 8.9353 26.6707 9.824C26.6801 10.1347 26.6832 10.4254 26.6863 10.6826C26.6863 10.7728 26.6895 10.853 26.6895 10.9198V11.0802ZM12.1582 15.4769L19.4082 10.9666L12.1582 6.52312V15.4769Z" fill="#F7FCFF"/>
</svg>
